<?xml version="1.0"?>
<svg version="1.1" xmlns="http://www.w3.org/2000/svg" width="400" height="200" style="border: dashed 2px #aaa"><path fill="#f01f5a" d="M41.103,105.676q-1.221,0.495-2.0955,0.495t-0.8745-0.363q0-0.231,0.9735-0.264t1.4025-0.231q1.254-0.66,1.254-1.947q0-0.66-0.363-1.386q-1.056-1.881-5.115-1.881q-2.343,0-4.686,0.7095t-3.927,2.178t-1.584,2.7225q0,1.914,3.795,2.805l3.894,0.726q2.343,0.429,3.498,1.188q1.518,0.924,1.518,2.64q0,0.693-0.231,1.485q-1.056,3.564-5.445,5.445q-3.663,1.617-8.646,1.617q-1.419,0-2.475-0.132q1.056,0.594,2.772,1.023q0.132,0.033,0.132,0.132q0,0.297-0.693,0.297q-1.353,0-3.366-1.617q-2.739-0.429-4.092-1.518q-0.858-0.693-1.584-2.046t-0.726-2.442t0.429-1.815q0.99-1.749,2.508-1.749q1.155,0,1.353,1.947q0.462,3.762,0.627,4.29q0.495,1.617,1.683,2.739q1.386,0.297,3.003,0.297q3.564,0,6.996-1.419t4.95-4.026q0.627-1.023,0.627-1.815q0-1.551-2.739-2.409l-5.808-1.32q-1.782-0.429-2.8545-1.419t-1.0725-2.277q0-1.98,2.475-3.96q1.881-1.518,4.6035-2.3595t5.346-0.8415t4.3395,0.759q2.211,1.023,2.211,2.9865t-2.013,2.7555z M19.851,120.394q-1.914-2.112-2.442-5.775q-0.297-2.079-0.561-2.079t-0.495,0.1485t-0.462,0.6435t-0.231,1.287q0,2.541,1.782,4.356q0.891,0.924,2.409,1.419z M48.96261,119.668q-1.947,0-1.947-2.277q0-1.287,0.9075-2.8545t2.2275-3.6795q-4.224,2.112-7.656,6.237q-1.914,2.871-2.244,2.871q-0.957,0-0.957-0.561q0-0.297,0.396-1.056q3.201-5.709,4.851-8.349q3.927-6.303,5.544-6.831q0.066-0.033,0.132-0.033q0.429,0,0.594,0.693q-0.099,0.693-3.432,5.016q-3.465,4.389-3.927,5.742q1.221-0.891,4.257-3.003q3.267-2.277,4.323-2.277t1.056,0.825q0,0.132-0.0165,0.1815t-2.2935,3.1185t-2.277,4.521q0,0.759,0.561,0.759q1.782-0.066,5.346-4.29q0.297-0.297,0.4455-0.297t0.1485,0.198q0,0.66-3.267,3.564q-2.046,1.782-2.772,1.782z M63.62022,112.804q0,1.155-2.211,3.861q-2.607,3.201-4.455,3.201l-0.528,0q-0.858,0-1.353-0.891q-0.396-0.627-0.396-1.386q0-1.98,2.8875-5.5605t4.6695-3.5805q1.683,0,1.683,1.782q0,0.462-0.165,1.188q0.033,0.099,0.627,0.099t1.815-0.627q-0.033,0.561-2.607,1.617q0.033,0.132,0.033,0.297z M61.47522,111.088q-1.122,0-3.1845,2.64t-2.0625,3.894t0.792,1.254q1.419,0,3.597-2.574t2.178-3.696q-0.528-0.297-1.32-1.518z M78.17883,112.342q0,2.673-3.0525,5.0655t-5.2965,2.3925q-1.485,0-2.1615-0.198t-1.5015-1.188q-0.561,0.462-1.518,2.3595t-0.957,3.2505q0,0.627,0.627,1.65q0.066,0.165-0.099,0.2805t-0.2475,0.1155t-0.1485-0.033q-1.386-0.759-1.386-2.9535t3.6465-7.59t5.0325-5.8575q0.33-0.066,0.429-0.066q0.561,0,0.561,1.221q0.33-0.33,1.353-0.627q1.254-0.33,1.782-0.33q1.188,0,2.0625,0.6765t0.8745,1.8315z M76.49583,112.012q0-1.254-1.485-1.254t-2.706,0.627q-0.561,0.264-3.102,2.904t-2.541,3.399q0,0.594,0.9075,0.891t1.8315,0.297q1.815,0,4.455-2.0625t2.64-4.8015z M92.07744,112.342q0,2.673-3.0525,5.0655t-5.2965,2.3925q-1.485,0-2.1615-0.198t-1.5015-1.188q-0.561,0.462-1.518,2.3595t-0.957,3.2505q0,0.627,0.627,1.65q0.066,0.165-0.099,0.2805t-0.2475,0.1155t-0.1485-0.033q-1.386-0.759-1.386-2.9535t3.6465-7.59t5.0325-5.8575q0.33-0.066,0.429-0.066q0.561,0,0.561,1.221q0.33-0.33,1.353-0.627q1.254-0.33,1.782-0.33q1.188,0,2.0625,0.6765t0.8745,1.8315z M90.39444,112.012q0-1.254-1.485-1.254t-2.706,0.627q-0.561,0.264-3.102,2.904t-2.541,3.399q0,0.594,0.9075,0.891t1.8315,0.297q1.815,0,4.455-2.0625t2.64-4.8015z M101.63655,106.6495q0.4455,0.3135,0.4455,0.7425t-0.4125,0.7425t-0.9075,0.3135t-0.9075-0.363t-0.4125-0.825q0-0.924,1.254-0.924q0.495,0,0.9405,0.3135z M94.72305,120.163q-1.683,0-1.683-2.178q0-1.782,1.947-4.9335t3.135-3.1845q0.33,0,0.7425,0.264t0.4125,0.528q-0.165,0.231-0.396,0.5115t-0.495,0.6105t-0.726,0.9405t-0.891,1.1715q-2.475,3.201-2.475,4.4055t0.825,1.2045q0.693,0,1.881-0.759q2.772-1.716,4.389-3.762q0.594-0.759,0.8085-0.759t0.2145,0.264t-0.759,1.056t-1.2045,1.254t-0.6105,0.6105t-0.6105,0.561t-0.6765,0.5775t-0.66,0.495t-0.759,0.4785t-0.759,0.3465q-0.693,0.297-1.65,0.297z M107.76366,109.372q0.891,0,0.891,0.693q0,0.198-0.099,0.396q-2.97,4.125-3.564,6.237q7.689-7.689,9.339-7.689q0.165-0.033,0.297-0.033q0.924,0,0.924,0.825q0,0.165-0.066,0.33t-1.32,1.782q-1.452,1.716-2.4585,3.3t-1.0065,2.64t0.462,1.056q1.452,0,5.049-3.993q0.066-0.066,0.231-0.297q0.495-0.594,0.594-0.594t0.099,0.33t-0.462,0.858q-4.092,4.653-5.808,4.653q-1.617,0-1.617-1.782t1.32-4.092l2.112-3.432q-2.244,1.65-3.993,3.6135t-3.1845,3.8115t-1.6665,1.848q-0.495,0-0.7755-0.4125t-0.2805-1.023t0.429-1.6335t1.089-2.475l-1.98,2.079q-0.726,0.726-0.9075,0.726t-0.1815-0.2145t0.264-0.4785q1.221-1.221,2.112-2.343q0.858-1.122,3.531-4.29q0.297-0.396,0.627-0.396z M128.22927,109.735l0.462-0.099q0.429,0,0.6765,0.264t0.2475,0.4125t-0.033,0.33t-0.957,1.6665q-1.155,2.013-1.914,3.399q-2.673,4.983-4.092,6.831q-3.036,4.026-5.775,4.026q-0.957,0-1.6665-0.8085t-0.7425-1.7985q0.099-0.396,0.297-0.396q0.099,0,0.165,0.231q0.165,0.858,0.627,1.32t0.924,0.462q1.881,0,4.026-2.475q1.419-1.65,3.135-4.818l1.65-3.267l-2.475,2.508q-2.376,2.277-3.2505,2.277t-1.6665-0.594q-0.891-0.66-0.891-1.749q0-2.409,3.3825-5.742t6.1545-3.333q1.122,0,1.452,0.726q0.099,0.264,0.165,0.4455t0.099,0.1815z M118.36227,117.853q0,1.188,0.825,1.188q1.914,0,5.214-4.191l3.498-4.818q-0.198-0.462-0.825-0.462q-2.046,0-5.379,3.1515t-3.333,5.1315z M144.93849,119.305q-0.957,0.561-2.3595,0.561t-2.145-0.924t-1.2705-2.937q-0.594,0.594-0.825,0.594q-0.165,0-0.165-0.231t0.165-0.396q1.089-1.353,3.696-3.894l4.158-3.894q1.782-1.683,2.112-1.683q1.056,0,1.056,0.792q0,0.396-0.3135,0.7755t-0.462,0.594t-0.3135,0.4125q-0.594,1.023-1.2045,4.224t-0.9405,4.455q2.739-0.033,5.643-3.564q0.33-0.33,0.495-0.33t0.165,0.2145t-0.297,0.5775q-1.914,2.244-3.564,3.135q-0.99,0.495-2.574,0.825z M140.48349,115.642q0,1.122,0.7425,1.8315t1.6665,0.7095t1.419-0.363q0.66-0.363,1.3035-3.036t0.7755-4.719l0.132-1.122q-1.815,1.353-3.8775,3.498t-2.1285,2.838q-0.033,0.198-0.033,0.363z M160.2726,106.6495q0.4455,0.3135,0.4455,0.7425t-0.4125,0.7425t-0.9075,0.3135t-0.9075-0.363t-0.4125-0.825q0-0.924,1.254-0.924q0.495,0,0.9405,0.3135z M153.3591,120.163q-1.683,0-1.683-2.178q0-1.782,1.947-4.9335t3.135-3.1845q0.33,0,0.7425,0.264t0.4125,0.528q-0.165,0.231-0.396,0.5115t-0.495,0.6105t-0.726,0.9405t-0.891,1.1715q-2.475,3.201-2.475,4.4055t0.825,1.2045q0.693,0,1.881-0.759q2.772-1.716,4.389-3.762q0.594-0.759,0.8085-0.759t0.2145,0.264t-0.759,1.056t-1.2045,1.254t-0.6105,0.6105t-0.6105,0.561t-0.6765,0.5775t-0.66,0.495t-0.759,0.4785t-0.759,0.3465q-0.693,0.297-1.65,0.297z M169.69971,109.174l4.752-0.066q0.099,0.066,0.099,0.099q0,0.297-4.1085,0.825t-4.4385,0.627q-0.627,0.561-2.31,3.3495t-1.683,4.0755q0,1.221,1.683,1.221q0.792,0,2.079-0.495t1.98-0.924q1.848-1.155,3.96-3.399q0.462-0.462,0.627-0.462q0.099,0,0.099,0.198t-0.495,0.792q-1.716,2.112-3.861,3.399q-2.574,1.584-4.917,1.584q-1.023,0-1.6665-0.4455t-0.6435-1.7985t1.188-3.7125t1.815-3.5145q-0.462,0.099-0.792,0.099q-0.957,0-0.957-0.759q0-0.561,0.792-0.792q0.099,0,0.297-0.033l1.914,0q0.594-0.759,1.353-1.749q0.924-1.188,1.254-1.188t0.825,0.264t0.495,0.627t-1.584,2.145q0.858,0.033,2.244,0.033z M174.02832,120.229q-0.363,0-0.66-0.099q-2.112-0.594-2.112-2.376q0-2.31,2.904-5.346t5.214-3.036q0.759,0,1.2375,0.4125t0.4785,1.0065q0,1.848-2.7885,3.531t-4.5375,1.683q-0.264,0-0.462-0.066q-0.495,0.891-0.495,1.881q0,1.716,1.6335,1.716t4.2405-2.211q2.013-1.617,3.432-3.432q0.297-0.396,0.5115-0.396t0.2145,0.198t-0.264,0.561q-1.782,2.343-4.29,4.158t-4.257,1.815z M180.26532,110.725q0-0.396-0.8415-0.396t-2.3925,1.287q-2.079,1.716-3.234,3.597q0.198,0.066,0.429,0.066q1.254,0,3.3495-1.3365t2.6235-2.9205q0.066-0.165,0.066-0.297z"/><path fill="#" d=""/></svg>
